# xmcd
#
# Track frame offsets:
#	150
#	19789
#	35236
#	56541
#	77599
#	95502
#	111883
#	125566
#	143974
#	163446
#	176028
#	195126
#
# Disc length: 2844 seconds
#
# Revision: 1
# Processed by: cddbd v1.5.1PL2 Copyright (c) Steve Scherf et al.
# Submitted via: audiograbber 1.83.01
#
DISCID=a50b1a0c
DTITLE=Autumn Bouakadakis - Sugarcane
DYEAR=2006
DGENRE=Country
TTITLE0=Get A Little High
TTITLE1=Up And On My Way
TTITLE2=Sugarcane
TTITLE3=When It Don't Come Easy
TTITLE4=Bright Eyes
TTITLE5=Don't Make Me Do It
TTITLE6=Tonight
TTITLE7=Peace Of Mind
TTITLE8=Long Way Down
TTITLE9=On The Rise
TTITLE10=Eleven
TTITLE11=Go On
EXTD=
EXTT0=
EXTT1=
EXTT2=
EXTT3=
EXTT4=
EXTT5=
EXTT6=
EXTT7=
EXTT8=
EXTT9=
EXTT10=
EXTT11=
PLAYORDER=
